<svg width="81" height="73" viewBox="0 0 81 73" fill="none" xmlns="http://www.w3.org/2000/svg">
<path d="M48.5 2H65.5L80.5 62H59.5L69.5 51L58.5 27.5L48.5 2Z" fill="#D02626"/>
<path d="M58.5 27.5H72L79.5 58.5L80.5 62H59L69.5 51L58.5 27.5Z" fill="#F9EBEB"/>
<g filter="url(#filter0_d_42_152)">
<path d="M0 2H46.5L45 51.5L0 52V2Z" fill="white"/>
<path d="M46.5 2L69.5 51L18 52L46.5 2Z" fill="white"/>
</g>
<g filter="url(#filter1_d_42_152)">
<path d="M0 2H48.5L58.5 27.5L0 28V2Z" fill="#E90000"/>
</g>
<rect y="52" width="5" height="21" fill="#263F5A"/>
<path d="M69 51L58.5 62L48 51H69Z" fill="#263F5A"/>
<defs>
<filter id="filter0_d_42_152" x="0" y="0" width="75.5" height="54" filterUnits="userSpaceOnUse" color-interpolation-filters="sRGB">
<feFlood flood-opacity="0" result="BackgroundImageFix"/>
<feColorMatrix in="SourceAlpha" type="matrix" values="0 0 0 0 0 0 0 0 0 0 0 0 0 0 0 0 0 0 127 0" result="hardAlpha"/>
<feOffset dx="4"/>
<feGaussianBlur stdDeviation="1"/>
<feComposite in2="hardAlpha" operator="out"/>
<feColorMatrix type="matrix" values="0 0 0 0 0 0 0 0 0 0 0 0 0 0 0 0 0 0 0.4 0"/>
<feBlend mode="normal" in2="BackgroundImageFix" result="effect1_dropShadow_42_152"/>
<feBlend mode="normal" in="SourceGraphic" in2="effect1_dropShadow_42_152" result="shape"/>
</filter>
<filter id="filter1_d_42_152" x="0" y="0" width="61.5" height="28" filterUnits="userSpaceOnUse" color-interpolation-filters="sRGB">
<feFlood flood-opacity="0" result="BackgroundImageFix"/>
<feColorMatrix in="SourceAlpha" type="matrix" values="0 0 0 0 0 0 0 0 0 0 0 0 0 0 0 0 0 0 127 0" result="hardAlpha"/>
<feOffset dx="2" dy="-1"/>
<feGaussianBlur stdDeviation="0.5"/>
<feComposite in2="hardAlpha" operator="out"/>
<feColorMatrix type="matrix" values="0 0 0 0 0 0 0 0 0 0 0 0 0 0 0 0 0 0 0.3 0"/>
<feBlend mode="normal" in2="BackgroundImageFix" result="effect1_dropShadow_42_152"/>
<feBlend mode="normal" in="SourceGraphic" in2="effect1_dropShadow_42_152" result="shape"/>
</filter>
</defs>
</svg>
