<svg width="120" height="120" viewBox="0 0 120 120" fill="none" xmlns="http://www.w3.org/2000/svg">
<g clip-path="url(#clip0)">
<path fill-rule="evenodd" clip-rule="evenodd" d="M90 105L67.5 15H78.75L100.312 26.25L105 45V60L112.5 75L117.188 93.75L101.25 105H90Z" fill="#0032E6"/>
<path fill-rule="evenodd" clip-rule="evenodd" d="M119.062 101.25L112.5 105H101.25L87.1875 93.75L70.3125 26.25L78.75 15H90L98.4375 18.75L100.312 26.25L86.25 45H105L106.875 52.5L105 60L110.625 67.5L112.5 75H93.75L117.188 93.75L119.062 101.25Z" fill="#F9F6F6"/>
<path fill-rule="evenodd" clip-rule="evenodd" d="M76.875 52.5H106.875L110.625 67.5H80.625L76.875 52.5Z" fill="#DF004B"/>
<path fill-rule="evenodd" clip-rule="evenodd" d="M78.75 45H75L73.125 37.5L90 15H97.5L98.4375 18.75L78.75 45Z" fill="#DF004B"/>
<path fill-rule="evenodd" clip-rule="evenodd" d="M86.25 75L119.062 101.25L120 105H112.5L84.375 82.5L82.5 75H86.25Z" fill="#DF004B"/>
<path fill-rule="evenodd" clip-rule="evenodd" d="M75 90L90 75L105 90L90 105L75 90Z" fill="#001130"/>
<path fill-rule="evenodd" clip-rule="evenodd" d="M7.5 90.0005C7.5 89.0049 7.10438 88.0514 6.40125 87.349C5.69813 86.6444 4.74375 86.25 3.75 86.25C2.75625 86.25 1.80187 86.6444 1.09875 87.349C0.395622 88.0514 0 89.0049 0 90.0005V120H7.5V90.0005Z" fill="#001130"/>
<path fill-rule="evenodd" clip-rule="evenodd" d="M52.5222 -0.211792H18.768L0.015625 11.0298V29.7657L15.0175 44.7545L0.015625 59.7432V78.4791L18.768 89.7207H101.278L52.5222 -0.211792Z" fill="#005AF0"/>
<path fill-rule="evenodd" clip-rule="evenodd" d="M67.5 15L78.75 37.5V52.5H86.25L90 60V63.75L97.5 75L105 90H101.25L75 63.75V90H60H45V63.75L18.75 90H0V78.75L18.75 60H0V30H18.75L0 11.25V0H18.75L45 26.25V0H52.5L67.5 15Z" fill="#F9F6F6"/>
<path fill-rule="evenodd" clip-rule="evenodd" d="M52.5 37.5V0H60L67.5 15V37.5H78.75L86.25 52.5H67.5V90H52.5V52.5H0V37.5H52.5Z" fill="#FF0050"/>
<path fill-rule="evenodd" clip-rule="evenodd" d="M0 3.75L26.25 30H37.5L7.5 0H0V3.75Z" fill="#FF0050"/>
<path fill-rule="evenodd" clip-rule="evenodd" d="M0 86.25L26.25 60H37.5L7.5 90H0V86.25Z" fill="#FF0050"/>
<path fill-rule="evenodd" clip-rule="evenodd" d="M97.5 75L90 60H82.5L97.5 75Z" fill="#FF0050"/>
</g>
<defs>
<clipPath id="clip0">
<rect width="120" height="120" fill="white"/>
</clipPath>
</defs>
</svg>
