<svg width="120" height="120" viewBox="0 0 120 120" fill="none" xmlns="http://www.w3.org/2000/svg">
<g clip-path="url(#clip0)">
<path fill-rule="evenodd" clip-rule="evenodd" d="M90 105L67.5 15H97.5L120 105H90Z" fill="#0032E6"/>
<path fill-rule="evenodd" clip-rule="evenodd" d="M7.5 90.0005C7.5 89.0049 7.10438 88.0514 6.40125 87.349C5.69813 86.6444 4.74375 86.25 3.75 86.25C2.75625 86.25 1.80187 86.6444 1.09875 87.349C0.395622 88.0514 0 89.0049 0 90.0005V120H7.5V90.0005Z" fill="#263F5A"/>
<path fill-rule="evenodd" clip-rule="evenodd" d="M75 90L90 75L105 90L90 105L75 90Z" fill="#263F5A"/>
<path fill-rule="evenodd" clip-rule="evenodd" d="M60.0198 -0.211914H48.7684H11.2637H0.0123291V14.7768V22.5V29.7656V37.26V44.7543V89.7206H105.025L60.0198 -0.211914Z" fill="#005AF0"/>
<path d="M38.9999 20L40.3298 24.0925H44.6327L41.1514 26.6218L42.4812 30.7144L38.9999 28.1849L35.5185 30.7144L36.8484 26.6218L33.3671 24.0925H37.6701L38.9999 20Z" fill="#FFDA44"/>
<path d="M21.322 27.3222L25.1564 29.2757L28.1991 26.2332L27.5257 30.4831L31.36 32.4367L27.1099 33.1099L26.4367 37.3601L24.4831 33.5259L20.2332 34.1992L23.2758 31.1566L21.322 27.3222Z" fill="#FFDA44"/>
<path d="M14 44.9999L18.0925 43.6701V39.3671L20.6216 42.8485L24.7144 41.5187L22.1848 44.9999L24.7144 48.4812L20.6216 47.1515L18.0925 50.6328V46.3298L14 44.9999Z" fill="#FFDA44"/>
<path d="M21.322 62.6778L23.2757 58.8434L20.2332 55.8008L24.4832 56.4743L26.4365 52.64L27.1099 56.8901L31.3598 57.5633L27.5261 59.5169L28.1991 63.7668L25.1564 60.7242L21.322 62.6778Z" fill="#FFDA44"/>
<path d="M38.9999 70.0002L37.6699 65.9076H33.3671L36.8485 63.3784L35.5185 59.2861L38.9999 61.8152L42.4812 59.2861L41.1514 63.3784L44.6327 65.9076H40.3296L38.9999 70.0002Z" fill="#FFDA44"/>
<path d="M56.6777 62.6778L52.8434 60.7244L49.8006 63.767L50.4739 59.5168L46.64 57.5633L50.8899 56.8901L51.5631 52.64L53.5166 56.4743L57.7665 55.8008L54.7239 58.8437L56.6777 62.6778Z" fill="#FFDA44"/>
<path d="M63.9993 44.9999L59.9068 46.3298V50.6328L57.3775 47.1514L53.2853 48.4812L55.8145 44.9999L53.2853 41.5187L57.3777 42.8485L59.9068 39.3671V43.6703L63.9993 44.9999Z" fill="#FFDA44"/>
<path d="M56.6777 27.322L54.724 31.1564L57.7667 34.1991L53.5164 33.5256L51.5631 37.3598L50.8899 33.1097L46.64 32.4364L50.4739 30.4829L49.8006 26.2332L52.8436 29.2757L56.6777 27.322Z" fill="#FFDA44"/>
</g>
<defs>
<clipPath id="clip0">
<rect width="120" height="120" fill="white"/>
</clipPath>
</defs>
</svg>
