<svg width="121" height="122" viewBox="0 0 121 122" fill="none" xmlns="http://www.w3.org/2000/svg">
<path fill-rule="evenodd" clip-rule="evenodd" d="M7.5625 91.0098C7.5625 90.0059 7.16358 89.0444 6.4546 88.3362C5.74561 87.6258 4.78328 87.228 3.78125 87.228C2.77922 87.228 1.81689 87.6258 1.1079 88.3362C0.398919 89.0444 0 90.0059 0 91.0098V121.259H7.5625V91.0098Z" fill="#263F5A"/>
<path fill-rule="evenodd" clip-rule="evenodd" d="M79.3864 61.0526L90.7316 106.394H120.985L113.422 76.1663L79.3864 61.0526Z" fill="#DF004B"/>
<path fill-rule="evenodd" clip-rule="evenodd" d="M83.1679 76.1436H113.422L105.858 45.9162L71.8227 30.8026L83.1679 76.1436Z" fill="#005AF0"/>
<path fill-rule="evenodd" clip-rule="evenodd" d="M75.6046 45.8936H105.858L98.295 15.6662H68.0412L75.6046 45.8936Z" fill="#DFEEF8"/>
<path fill-rule="evenodd" clip-rule="evenodd" d="M75.625 91.0093L90.75 75.8843L105.875 91.0093L90.75 106.134L75.625 91.0093Z" fill="#263F5A"/>
<path fill-rule="evenodd" clip-rule="evenodd" d="M75.6494 30.2273L60.5225 0H0.0148926V30.2273L75.6494 60.4546V30.2273Z" fill="#F9F6F6"/>
<path fill-rule="evenodd" clip-rule="evenodd" d="M75.6481 30.25H0.0136719V60.4773L90.775 90.7046V60.4773L75.6481 30.25Z" fill="#0081F8"/>
<path fill-rule="evenodd" clip-rule="evenodd" d="M90.775 60.5H0.0136719V90.7273H105.902L90.775 60.5Z" fill="#FF0050"/>
</svg>
