<svg width="120" height="120" viewBox="0 0 120 120" fill="none" xmlns="http://www.w3.org/2000/svg">
<g clip-path="url(#clip0)">
<path fill-rule="evenodd" clip-rule="evenodd" d="M7.5 90.0005C7.5 89.0049 7.10438 88.0514 6.40125 87.349C5.69813 86.6444 4.74375 86.25 3.75 86.25C2.75625 86.25 1.80187 86.6444 1.09875 87.349C0.395622 88.0514 0 89.0049 0 90.0005V120H7.5V90.0005Z" fill="#001130"/>
<path fill-rule="evenodd" clip-rule="evenodd" d="M90 105L67.5 15H97.5L120 105H90Z" fill="#DF004B"/>
<path fill-rule="evenodd" clip-rule="evenodd" d="M75 90L90 75L105 90L90 105L75 90Z" fill="#001130"/>
<path fill-rule="evenodd" clip-rule="evenodd" d="M60.0282 -0.21167H0.020752V89.7208H105.034L60.0282 -0.21167Z" fill="#FF0050"/>
<path fill-rule="evenodd" clip-rule="evenodd" d="M67.5 15V75H45V15H67.5Z" fill="#F9F6F6"/>
<path fill-rule="evenodd" clip-rule="evenodd" d="M76.875 33.75H26.25V56.25H86.25V52.5L76.875 33.75Z" fill="#F9F6F6"/>
</g>
<defs>
<clipPath id="clip0">
<rect width="120" height="120" fill="white"/>
</clipPath>
</defs>
</svg>
