<svg width="123" height="123" viewBox="0 0 123 123" fill="none" xmlns="http://www.w3.org/2000/svg">
<g clip-path="url(#clip0)">
<path fill-rule="evenodd" clip-rule="evenodd" d="M92.25 107.625L69.1875 15.375H99.9375L101.859 23.0625L99.9375 26.9062L103.781 30.75L105.703 38.4375L103.781 42.2812L107.625 46.125L109.547 53.8125L107.625 57.6562L111.469 61.5L113.391 69.1875L111.469 73.0312L115.312 76.875L117.234 84.5625L115.312 88.4062L119.156 92.25L121.078 99.9375L119.156 103.781L123 107.625H92.25Z" fill="#DFEEF8"/>
<path fill-rule="evenodd" clip-rule="evenodd" d="M101.859 23.0625H71.1094L73.0312 30.75H103.781L101.859 23.0625Z" fill="#DF004B"/>
<path fill-rule="evenodd" clip-rule="evenodd" d="M105.703 38.4375H74.9531L76.875 46.125H107.625L105.703 38.4375Z" fill="#DF004B"/>
<path fill-rule="evenodd" clip-rule="evenodd" d="M109.547 53.8125H78.7969L80.7188 61.5H111.469L109.547 53.8125Z" fill="#DF004B"/>
<path fill-rule="evenodd" clip-rule="evenodd" d="M113.391 69.1875H82.6406L84.5625 76.875H115.312L113.391 69.1875Z" fill="#DF004B"/>
<path fill-rule="evenodd" clip-rule="evenodd" d="M117.234 84.5625H86.4844L88.4062 92.25H119.156L117.234 84.5625Z" fill="#DF004B"/>
<path fill-rule="evenodd" clip-rule="evenodd" d="M121.078 99.9375H90.3281L92.25 107.625H123L121.078 99.9375Z" fill="#DF004B"/>
<path fill-rule="evenodd" clip-rule="evenodd" d="M7.6875 92.2505C7.6875 91.23 7.28199 90.2527 6.56128 89.5327C5.84058 88.8106 4.86234 88.4062 3.84375 88.4062C2.82516 88.4062 1.84692 88.8106 1.12622 89.5327C0.405513 90.2527 0 91.23 0 92.2505V123H7.6875V92.2505Z" fill="#263F5A"/>
<path fill-rule="evenodd" clip-rule="evenodd" d="M76.875 92.25L92.25 76.875L107.625 92.25L92.25 107.625L76.875 92.25Z" fill="#263F5A"/>
<path fill-rule="evenodd" clip-rule="evenodd" d="M61.5204 -0.216553L0.0126953 45.8739L3.85693 49.7147L0.0126953 53.5556V61.2373L3.85693 65.0782L0.0126953 68.9191V76.6008L3.85693 80.4417L0.0126953 84.2825V91.9643H107.651L61.5204 -0.216553Z" fill="#F9F6F6"/>
<path fill-rule="evenodd" clip-rule="evenodd" d="M61.5008 0L51.2515 7.6875H65.3446L61.5008 0Z" fill="#FF0050"/>
<path fill-rule="evenodd" clip-rule="evenodd" d="M84.5625 46.125H0V53.8125H88.4062L84.5625 46.125Z" fill="#FF0050"/>
<path fill-rule="evenodd" clip-rule="evenodd" d="M69.1875 15.375H40.9994L30.75 23.0625H73.0312L69.1875 15.375Z" fill="#FF0050"/>
<path fill-rule="evenodd" clip-rule="evenodd" d="M92.25 61.5H0V69.1875H96.0938L92.25 61.5Z" fill="#FF0050"/>
<path fill-rule="evenodd" clip-rule="evenodd" d="M76.8744 30.75H20.5L10.2488 38.4375H80.7182L76.8744 30.75Z" fill="#FF0050"/>
<path fill-rule="evenodd" clip-rule="evenodd" d="M99.9375 76.875H0V84.5625H103.781L99.9375 76.875Z" fill="#FF0050"/>
<path fill-rule="evenodd" clip-rule="evenodd" d="M0.197998 -0.0480957H61.7095V46.0731H0.197998V-0.0480957Z" fill="#0032E6"/>
<path d="M11.5178 38.4249C9.40224 38.4249 7.68719 36.7098 7.68719 34.5942C7.68719 36.7098 5.97214 38.4249 3.85656 38.4249C5.97214 38.4249 7.68719 40.1399 7.68719 42.2555C7.68719 40.1399 9.40224 38.4249 11.5178 38.4249Z" fill="#F9F6F6"/>
<path d="M26.8928 38.4249C24.7772 38.4249 23.0622 36.7098 23.0622 34.5942C23.0622 36.7098 21.3471 38.4249 19.2316 38.4249C21.3471 38.4249 23.0622 40.1399 23.0622 42.2555C23.0622 40.1399 24.7772 38.4249 26.8928 38.4249Z" fill="#F9F6F6"/>
<path d="M42.2678 38.4249C40.1522 38.4249 38.4372 36.7098 38.4372 34.5942C38.4372 36.7098 36.7221 38.4249 34.6066 38.4249C36.7221 38.4249 38.4372 40.1399 38.4372 42.2555C38.4372 40.1399 40.1522 38.4249 42.2678 38.4249Z" fill="#F9F6F6"/>
<path d="M57.6428 38.4249C55.5272 38.4249 53.8122 36.7098 53.8122 34.5942C53.8122 36.7098 52.0971 38.4249 49.9816 38.4249C52.0971 38.4249 53.8122 40.1399 53.8122 42.2555C53.8122 40.1399 55.5272 38.4249 57.6428 38.4249Z" fill="#F9F6F6"/>
<path d="M19.2053 30.7374C17.0897 30.7374 15.3747 29.0223 15.3747 26.9067C15.3747 29.0223 13.6596 30.7374 11.5441 30.7374C13.6596 30.7374 15.3747 32.4524 15.3747 34.568C15.3747 32.4524 17.0897 30.7374 19.2053 30.7374Z" fill="#F9F6F6"/>
<path d="M34.5803 30.7374C32.4647 30.7374 30.7497 29.0223 30.7497 26.9067C30.7497 29.0223 29.0346 30.7374 26.9191 30.7374C29.0346 30.7374 30.7497 32.4524 30.7497 34.568C30.7497 32.4524 32.4647 30.7374 34.5803 30.7374Z" fill="#F9F6F6"/>
<path d="M49.9553 30.7374C47.8397 30.7374 46.1247 29.0223 46.1247 26.9067C46.1247 29.0223 44.4096 30.7374 42.2941 30.7374C44.4096 30.7374 46.1247 32.4524 46.1247 34.568C46.1247 32.4524 47.8397 30.7374 49.9553 30.7374Z" fill="#F9F6F6"/>
<path d="M11.5178 23.0499C9.40224 23.0499 7.68719 21.3348 7.68719 19.2192C7.68719 21.3348 5.97214 23.0499 3.85656 23.0499C5.97214 23.0499 7.68719 24.7649 7.68719 26.8805C7.68719 24.7649 9.40224 23.0499 11.5178 23.0499Z" fill="#F9F6F6"/>
<path d="M26.8928 23.0499C24.7772 23.0499 23.0622 21.3348 23.0622 19.2192C23.0622 21.3348 21.3471 23.0499 19.2316 23.0499C21.3471 23.0499 23.0622 24.7649 23.0622 26.8805C23.0622 24.7649 24.7772 23.0499 26.8928 23.0499Z" fill="#F9F6F6"/>
<path d="M42.2678 23.0499C40.1522 23.0499 38.4372 21.3348 38.4372 19.2192C38.4372 21.3348 36.7221 23.0499 34.6066 23.0499C36.7221 23.0499 38.4372 24.7649 38.4372 26.8805C38.4372 24.7649 40.1522 23.0499 42.2678 23.0499Z" fill="#F9F6F6"/>
<path d="M57.6428 23.0499C55.5272 23.0499 53.8122 21.3348 53.8122 19.2192C53.8122 21.3348 52.0971 23.0499 49.9816 23.0499C52.0971 23.0499 53.8122 24.7649 53.8122 26.8805C53.8122 24.7649 55.5272 23.0499 57.6428 23.0499Z" fill="#F9F6F6"/>
<path d="M19.2053 15.3624C17.0897 15.3624 15.3747 13.6473 15.3747 11.5317C15.3747 13.6473 13.6596 15.3624 11.5441 15.3624C13.6596 15.3624 15.3747 17.0774 15.3747 19.193C15.3747 17.0774 17.0897 15.3624 19.2053 15.3624Z" fill="#F9F6F6"/>
<path d="M34.5803 15.3624C32.4647 15.3624 30.7497 13.6473 30.7497 11.5317C30.7497 13.6473 29.0346 15.3624 26.9191 15.3624C29.0346 15.3624 30.7497 17.0774 30.7497 19.193C30.7497 17.0774 32.4647 15.3624 34.5803 15.3624Z" fill="#F9F6F6"/>
<path d="M49.9553 15.3624C47.8397 15.3624 46.1247 13.6473 46.1247 11.5317C46.1247 13.6473 44.4096 15.3624 42.2941 15.3624C44.4096 15.3624 46.1247 17.0774 46.1247 19.193C46.1247 17.0774 47.8397 15.3624 49.9553 15.3624Z" fill="#F9F6F6"/>
<path d="M11.5178 7.67486C9.40224 7.67486 7.68719 5.95981 7.68719 3.84423C7.68719 5.95981 5.97214 7.67486 3.85656 7.67486C5.97214 7.67486 7.68719 9.38991 7.68719 11.5055C7.68719 9.38991 9.40224 7.67486 11.5178 7.67486Z" fill="#F9F6F6"/>
<path d="M26.8928 7.67486C24.7772 7.67486 23.0622 5.95981 23.0622 3.84423C23.0622 5.95981 21.3471 7.67486 19.2316 7.67486C21.3471 7.67486 23.0622 9.38991 23.0622 11.5055C23.0622 9.38991 24.7772 7.67486 26.8928 7.67486Z" fill="#F9F6F6"/>
<path d="M42.2678 7.67486C40.1522 7.67486 38.4372 5.95981 38.4372 3.84423C38.4372 5.95981 36.7221 7.67486 34.6066 7.67486C36.7221 7.67486 38.4372 9.38991 38.4372 11.5055C38.4372 9.38991 40.1522 7.67486 42.2678 7.67486Z" fill="#F9F6F6"/>
<path d="M57.6428 7.67486C55.5272 7.67486 53.8122 5.95981 53.8122 3.84423C53.8122 5.95981 52.0971 7.67486 49.9816 7.67486C52.0971 7.67486 53.8122 9.38991 53.8122 11.5055C53.8122 9.38991 55.5272 7.67486 57.6428 7.67486Z" fill="#F9F6F6"/>
</g>
<defs>
<clipPath id="clip0">
<rect width="123" height="123" fill="white"/>
</clipPath>
</defs>
</svg>
