<?xml version="1.0" encoding="UTF-8"?>
<!DOCTYPE svg PUBLIC "-//W3C//DTD SVG 1.1//EN" "http://www.w3.org/Graphics/SVG/1.1/DTD/svg11.dtd">
<!-- Creator: CorelDRAW X7 -->
<svg xmlns="http://www.w3.org/2000/svg" xml:space="preserve" width="30.8219mm" height="30.822mm" version="1.1" style="shape-rendering:geometricPrecision; text-rendering:geometricPrecision; image-rendering:optimizeQuality; fill-rule:evenodd; clip-rule:evenodd"
viewBox="0 0 8735 8735"
 xmlns:xlink="http://www.w3.org/1999/xlink">
 <defs>
  <style type="text/css">
   <![CDATA[
    .fil0 {fill:#FEFEFE}
   ]]>
  </style>
 </defs>
 <g id="Слой_x0020_1">
  <metadata id="CorelCorpID_0Corel-Layer"/>
  <path class="fil0" d="M4367 0c2412,0 4368,1955 4368,4367 0,2412 -1956,4368 -4368,4368 -2412,0 -4367,-1956 -4367,-4368 0,-2412 1955,-4367 4367,-4367zm2047 3795l0 1779c0,462 -378,840 -840,840l-2413 0c-462,0 -840,-378 -840,-840l0 -1779 1197 0c-125,172 -198,384 -198,612 0,578 469,1047 1047,1047 578,0 1047,-469 1047,-1047 0,-228 -73,-440 -197,-612l1197 0zm-2047 -196c446,0 808,362 808,808 0,446 -362,808 -808,808 -446,0 -808,-362 -808,-808 0,-446 362,-808 808,-808zm0 218c326,0 590,264 590,590 0,326 -264,590 -590,590 -325,0 -589,-264 -589,-590 0,-326 264,-590 589,-590zm-1206 -1496l91 0 0 1016 165 0 0 -1016 2157 0c462,0 840,378 840,840l0 506 -1306 0c-190,-190 -451,-307 -741,-307 -289,0 -551,117 -740,307l-1306 0 0 -506c0,-282 140,-532 354,-684l0 860 165 0 0 -952c40,-17 81,-30 124,-41l0 993 165 0 0 -1016c10,0 21,0 32,0zm2286 356l480 0c58,0 104,47 104,104l0 481c0,57 -46,103 -104,103l-480 0c-57,0 -104,-46 -104,-103l0 -481c0,-57 47,-104 104,-104z"/>
 </g>
</svg>
