<?xml version="1.0" encoding="UTF-8"?>
<!DOCTYPE svg PUBLIC "-//W3C//DTD SVG 1.1//EN" "http://www.w3.org/Graphics/SVG/1.1/DTD/svg11.dtd">
<!-- Creator: CorelDRAW X7 -->
<svg xmlns="http://www.w3.org/2000/svg" xml:space="preserve" width="30.8218mm" height="30.822mm" version="1.1" style="shape-rendering:geometricPrecision; text-rendering:geometricPrecision; image-rendering:optimizeQuality; fill-rule:evenodd; clip-rule:evenodd"
viewBox="0 0 431 431"
 xmlns:xlink="http://www.w3.org/1999/xlink">
 <defs>
  <style type="text/css">
   <![CDATA[
    .fil0 {fill:#FEFEFE}
   ]]>
  </style>
 </defs>
 <g id="Слой_x0020_1">
  <metadata id="CorelCorpID_0Corel-Layer"/>
  <path class="fil0" d="M216 0c119,0 215,97 215,216 0,119 -96,215 -215,215 -119,0 -216,-96 -216,-215 0,-119 97,-216 216,-216zm-52 160c4,1 8,2 10,5 3,2 4,6 4,10 2,8 2,19 1,27 -1,8 -3,20 -12,14 -9,-6 -18,-26 -23,-36l-7 -14c-4,-11 -7,-10 -20,-10 -6,0 -25,0 -29,1 -2,0 -3,2 -4,4l0 2c2,11 29,57 36,68 9,14 20,30 35,40 23,16 33,17 61,17 12,-1 9,-11 10,-16 1,-4 1,-8 3,-10 3,-6 7,-8 13,-4l20 21c6,7 8,9 17,9 10,1 22,1 31,0 10,0 16,-2 16,-8 0,-11 -21,-30 -30,-38 -14,-14 -12,-14 0,-30 2,-3 3,-5 5,-7 7,-8 25,-33 25,-41l0 -3c0,-2 -1,-4 -6,-4 -2,-1 -45,-1 -46,0 -3,0 -4,2 -5,4 -2,2 -2,4 -3,7 -6,14 -19,38 -30,47 -2,2 -3,3 -6,1 -9,-5 0,-49 -6,-60 -4,-9 -41,-6 -49,-4 -4,0 -11,4 -11,8z"/>
 </g>
</svg>
