<svg width="205" height="36" viewBox="0 0 205 36" fill="none" xmlns="http://www.w3.org/2000/svg">
<path d="M143.634 6.58284L143.371 8.05966L143.634 6.58284ZM203.423 31.4395C204.217 31.2061 204.673 30.3725 204.439 29.5776L200.636 16.6245C200.402 15.8296 199.569 15.3745 198.774 15.6079C197.979 15.8413 197.524 16.6748 197.757 17.4697L201.138 28.9836L189.624 32.3644C188.829 32.5978 188.374 33.4314 188.608 34.2263C188.841 35.0212 189.675 35.4763 190.469 35.2429L203.423 31.4395ZM53.4275 6.5829L53.1309 5.11251L53.4275 6.5829ZM143.371 8.05966C172.195 13.1866 200.138 30.1467 202.281 31.3168L203.719 28.6837C201.731 27.598 173.309 10.3377 143.896 5.10602L143.371 8.05966ZM1 30.0002C1.86213 31.2277 1.86202 31.2278 1.86201 31.2278C1.86213 31.2277 1.86221 31.2277 1.86246 31.2275C1.86297 31.2271 1.86385 31.2265 1.86513 31.2256C1.86769 31.2238 1.87179 31.221 1.87744 31.217C1.88873 31.2091 1.90618 31.197 1.92969 31.1807C1.97671 31.148 2.04799 31.0988 2.14277 31.0338C2.33233 30.9038 2.61589 30.7111 2.98745 30.463C3.73063 29.9669 4.82562 29.2496 6.22456 28.3708C9.02306 26.6129 13.0345 24.211 17.8765 21.6414C27.5773 16.4935 40.5387 10.7124 53.724 8.0533L53.1309 5.11251C39.542 7.85303 26.2897 13.7806 16.4703 18.9914C11.5522 21.6013 7.47695 24.0413 4.62878 25.8304C3.20438 26.7252 2.08603 27.4577 1.32171 27.968C0.939526 28.2231 0.645793 28.4228 0.446504 28.5594C0.346857 28.6277 0.270815 28.6802 0.219128 28.7161C0.193284 28.7341 0.173528 28.7478 0.159953 28.7573C0.153166 28.762 0.147924 28.7657 0.144239 28.7683C0.142397 28.7696 0.140944 28.7706 0.139881 28.7713C0.13935 28.7717 0.138846 28.7721 0.13858 28.7723C0.138175 28.7725 0.137867 28.7728 1 30.0002ZM53.724 8.0533C85.3716 1.67083 110.992 2.30049 143.371 8.05966L143.896 5.10602C111.219 -0.706352 85.2121 -1.3574 53.1309 5.11251L53.724 8.0533Z" fill="#D5C7FA"/>
</svg>
