<svg width="205" height="36" viewBox="0 0 205 36" fill="none" xmlns="http://www.w3.org/2000/svg">
<path d="M143.634 29.4177L143.371 27.9408L143.371 27.9408L143.634 29.4177ZM203.423 4.561C204.217 4.7944 204.673 5.62797 204.439 6.42284L200.636 19.376C200.402 20.1709 199.569 20.626 198.774 20.3926C197.979 20.1592 197.524 19.3257 197.757 18.5308L201.138 7.01688L189.624 3.63608C188.829 3.40268 188.374 2.56911 188.608 1.77424C188.841 0.979366 189.675 0.524201 190.469 0.757597L203.423 4.561ZM53.4275 29.4176L53.724 27.9472L53.724 27.9472L53.4275 29.4176ZM143.371 27.9408C172.195 22.8138 200.138 5.85374 202.281 4.68372L203.719 7.31676C201.731 8.40248 173.309 25.6627 143.896 30.8945L143.371 27.9408ZM1 6.00024C1.86213 4.77275 1.86202 4.77268 1.86201 4.77267C1.86213 4.77275 1.86221 4.77281 1.86246 4.77299C1.86297 4.77334 1.86385 4.77396 1.86513 4.77486C1.86769 4.77664 1.87179 4.77952 1.87744 4.78346C1.88873 4.79134 1.90618 4.8035 1.92969 4.81982C1.97671 4.85246 2.04799 4.90173 2.14277 4.9667C2.33233 5.09665 2.61589 5.28939 2.98745 5.53746C3.73063 6.03362 4.82562 6.75092 6.22456 7.62969C9.02306 9.38762 13.0345 11.7895 17.8765 14.3591C27.5773 19.507 40.5387 25.2881 53.724 27.9472L53.1309 30.888C39.542 28.1475 26.2897 22.2199 16.4703 17.009C11.5522 14.3992 7.47695 11.9592 4.62878 10.1701C3.20438 9.2753 2.08603 8.54279 1.32171 8.03251C0.939526 7.77736 0.645793 7.57773 0.446504 7.44111C0.346857 7.3728 0.270815 7.32024 0.219128 7.28437C0.193284 7.26643 0.173528 7.25266 0.159953 7.24318C0.153166 7.23845 0.147924 7.23478 0.144239 7.2322C0.142397 7.23091 0.140943 7.22989 0.139881 7.22914C0.13935 7.22877 0.138846 7.22842 0.13858 7.22823C0.138175 7.22795 0.137867 7.22773 1 6.00024ZM53.724 27.9472C85.3716 34.3297 110.992 33.7 143.371 27.9408L143.896 30.8945C111.219 36.7068 85.2121 37.3579 53.1309 30.888L53.724 27.9472Z" fill="#D5C7FA"/>
</svg>
