<svg width="17" height="15" viewBox="0 0 17 15" fill="none" xmlns="http://www.w3.org/2000/svg">
<path d="M16.9667 0.789955C16.953 0.727182 16.9228 0.669164 16.8794 0.621773C16.836 0.574382 16.7809 0.539301 16.7195 0.52008C16.4962 0.475845 16.265 0.492232 16.0502 0.567539C16.0502 0.567539 1.15461 5.92183 0.303903 6.51471C0.121153 6.64221 0.0595281 6.71658 0.0290697 6.80371C-0.118264 7.22871 0.340028 7.41146 0.340028 7.41146L4.1792 8.66237C4.24411 8.67402 4.31086 8.67013 4.37399 8.65104C5.24665 8.09925 13.1573 3.10196 13.617 2.93408C13.6879 2.91283 13.7424 2.93408 13.7282 2.98721C13.5455 3.62825 6.70936 9.70079 6.67182 9.73762C6.65353 9.75261 6.63929 9.77193 6.63038 9.79383C6.62147 9.81572 6.61818 9.8395 6.62082 9.863L6.2624 13.6115C6.2624 13.6115 6.11224 14.7781 7.27886 13.6115C8.1062 12.7835 8.90024 12.0978 9.2969 11.7642C10.6172 12.6758 12.0374 13.6837 12.6502 14.2115C12.7532 14.3112 12.8753 14.3892 13.0092 14.4407C13.1431 14.4921 13.286 14.5161 13.4293 14.5111C13.6058 14.4896 13.7716 14.4148 13.9046 14.2967C14.0376 14.1787 14.1315 14.0229 14.1738 13.8502C14.1738 13.8502 16.8867 2.92558 16.9774 1.46216C16.9866 1.3205 16.9986 1.227 17 1.12854C17.0044 1.01469 16.9932 0.900768 16.9667 0.789955Z" fill="#090909"/>
</svg>
