<svg width="15" height="13" viewBox="0 0 15 13" fill="none" xmlns="http://www.w3.org/2000/svg">
<path fill-rule="evenodd" clip-rule="evenodd" d="M8.06919 2.61949C7.66633 3.25857 7.53034 4.00825 7.53034 4.36408C7.53034 4.59851 7.41327 4.81768 7.21783 4.94912C7.0224 5.08055 6.77405 5.10713 6.55492 5.02006C6.4116 4.96311 6.25193 4.90522 6.07928 4.84262C5.63199 4.68045 5.09761 4.48671 4.53495 4.19608C3.96352 3.90092 3.34085 3.50006 2.63555 2.90485C2.64431 3.17055 2.70339 3.4139 2.80268 3.63942C3.03447 4.1659 3.52595 4.68641 4.3398 5.17118C4.56247 5.30381 4.69469 5.54642 4.68476 5.80412C4.67483 6.06183 4.52432 6.29369 4.2921 6.40903L4.29132 6.40941L4.29048 6.40983L4.28858 6.41077L4.28398 6.41301L4.27156 6.41895C4.26187 6.42353 4.24936 6.42934 4.23412 6.43618C4.20363 6.44985 4.16215 6.46771 4.11037 6.48828C4.00691 6.52938 3.86168 6.58162 3.68042 6.63306C3.4898 6.68716 3.2577 6.74084 2.99123 6.77952C3.14328 7.31585 3.48217 7.65061 3.84733 7.90349C4.06207 8.05219 4.26981 8.16164 4.4786 8.27164C4.53054 8.299 4.58253 8.32639 4.63472 8.35443C4.74875 8.4157 4.89865 8.49851 5.02262 8.59702C5.1183 8.67304 5.39654 8.90908 5.39654 9.30967C5.39654 9.56579 5.2796 9.7654 5.20557 9.87208C5.11897 9.99688 5.00966 10.1095 4.89521 10.208C4.66433 10.4066 4.35438 10.5975 3.98692 10.7539C3.5638 10.934 3.04726 11.0756 2.45678 11.1266C2.50515 11.1523 2.55656 11.177 2.6111 11.2004C3.12881 11.4233 3.88593 11.5145 4.79801 11.4321C6.60635 11.2688 8.75163 10.4491 10.2261 9.16408C11.3565 7.86726 11.8352 6.58412 12.0344 5.63315C12.1352 5.15211 12.1646 4.75504 12.1694 4.484C12.1719 4.34861 12.1682 4.24514 12.1643 4.17895C12.1623 4.14587 12.1603 4.12216 12.1591 4.10851L12.1578 4.09567C12.1369 3.92305 12.1807 3.74841 12.2811 3.60588L12.158 4.09723L12.1581 4.09845L12.2811 3.60588L13.5894 4.20496C13.5786 4.22139 13.5992 4.19025 13.5894 4.20496C13.5894 4.20496 13.5939 4.39136 13.5918 4.5091C13.5855 4.85625 13.5484 5.34233 13.4271 5.92105C13.184 7.08136 12.6034 8.61022 11.2674 10.128C11.2478 10.1503 11.2267 10.1714 11.2044 10.1911C9.47716 11.7153 7.01715 12.6506 4.92679 12.8393C3.88266 12.9336 2.86149 12.8482 2.04552 12.497C1.20059 12.1333 0.548906 11.4636 0.422247 10.4571C0.39439 10.2357 0.473426 10.0143 0.635442 9.85977C0.797457 9.70527 1.02342 9.63586 1.24495 9.67254C2.17027 9.82573 2.92212 9.6698 3.42673 9.45507C3.47704 9.43366 3.5688 9.39002 3.5688 9.39002C3.5688 9.39002 3.21713 9.18959 3.0338 9.06263C2.28326 8.54289 1.48458 7.66443 1.48458 6.13036C1.48458 5.74016 1.80303 5.42385 2.19585 5.42385C2.24757 5.42385 2.29829 5.42287 2.34796 5.42103C1.98561 5.05679 1.69627 4.65291 1.49933 4.20559C1.10007 3.29872 1.12094 2.305 1.53546 1.27563C1.62425 1.05513 1.81863 0.893688 2.05284 0.845937C2.28704 0.798186 2.52973 0.870511 2.69879 1.03844C3.7211 2.05392 4.5228 2.59715 5.19124 2.94242C5.57525 3.14077 5.90455 3.27148 6.23392 3.39283C6.34808 2.91135 6.5476 2.37074 6.86352 1.86959C7.44705 0.9439 8.45393 0.125 10.0198 0.125C10.9911 0.125 11.6161 0.600468 12.0096 0.926336C12.0571 0.965605 12.0982 0.999954 12.1343 1.03013C12.2253 1.10611 12.2846 1.15564 12.333 1.19068C12.6563 1.03844 12.9483 0.93178 13.2079 0.882639C13.4839 0.830402 13.8816 0.814384 14.209 1.07482C14.5536 1.34885 14.5935 1.74301 14.5817 1.97647C14.5693 2.2208 14.496 2.46547 14.419 2.66934C14.2618 3.08578 14.0115 3.52844 13.8164 3.84762C13.7309 3.98743 13.652 4.11005 13.5894 4.20496C13.6019 4.3592 13.5881 4.1904 13.5894 4.20496L12.2811 3.60588L12.2819 3.60472L12.286 3.59887L12.3037 3.57324C12.3195 3.55021 12.3429 3.51575 12.3722 3.47188C12.4308 3.38393 12.5118 3.25935 12.6005 3.11425C12.7265 2.90805 12.8581 2.67657 12.9635 2.45762C12.9207 2.47752 12.8754 2.49932 12.8274 2.52316C12.8177 2.52795 12.808 2.53252 12.7982 2.53687C12.363 2.72905 11.9709 2.6164 11.6956 2.46156C11.5056 2.35466 11.3115 2.19091 11.1715 2.07271C11.1452 2.05055 11.1209 2.03 11.0988 2.01172C10.7657 1.73595 10.471 1.53803 10.0198 1.53803C9.0441 1.53803 8.45063 2.0144 8.06919 2.61949Z" fill="black"/>
</svg>
