<svg width="17" height="13" viewBox="0 0 17 13" fill="none" xmlns="http://www.w3.org/2000/svg">
<path d="M15.7283 11.2565L17 12.3941V12.454H10.4409V12.3941L11.7795 11.2565C11.9134 11.1367 11.9803 11.017 11.9803 10.8374V3.77212C11.9803 3.47274 11.9803 3.05362 12.0472 2.69437L7.62992 12.5737H7.56299L3.01181 3.47274C2.94488 3.23324 2.87795 3.23324 2.81102 3.11349V9.10099C2.74409 9.52011 2.81102 9.87936 3.01181 10.2386L4.8189 12.3941V12.454H0V12.3941L1.80709 10.1787C2.00787 9.81948 2.0748 9.40036 2.00787 9.04111V2.45487C2.00787 2.1555 1.94094 1.79625 1.67323 1.55675L0.468504 0.0598749V0H5.15354L9.03543 7.72386L12.4488 0H17V0.0598749L15.7283 1.37712C15.5945 1.49687 15.5276 1.6765 15.5276 1.79625V10.8972C15.5276 11.017 15.5945 11.1966 15.7283 11.2565Z" fill="black"/>
</svg>
